<?xml version="1.0" encoding="utf-8"?>
<!-- Generator: Adobe Illustrator 27.9.4, SVG Export Plug-In . SVG Version: 9.03 Build 54784)  -->
<svg version="1.1" id="Layer_1" xmlns="http://www.w3.org/2000/svg" xmlns:xlink="http://www.w3.org/1999/xlink" x="0px" y="0px"
	 viewBox="0 0 324.3 292.5" style="enable-background:new 0 0 324.3 292.5;" xml:space="preserve">
<style type="text/css">
	.st0{fill:#007CC2;}
	.st1{font-family:'TamilSangamMN';}
	.st2{font-size:23.2885px;}
	.st3{letter-spacing:-0.9;}
	.st4{font-size:157.4923px;}
	.st5{letter-spacing:-8.9;}
</style>
<g id="S_Logo">
	<path id="Bottom_S" class="st0" d="M18.1,186.4c0.2,0.6,0.4,1.4,0.8,2.3c1.4,3.4,3.1,5.6,4.4,7.3c2.7,3.5,5.3,5.7,6.3,6.5
		c1.3,1.1,5,4,10.5,6.2c10.6,4.2,20.3,3.1,24.9,2.2c5.3-1.1,9.1-2.8,10.4-3.5c7.1-3.5,11.3-8.1,12.8-9.8c2.1-2.4,5.6-6.6,7.3-13.1
		c1.2-4.4,1.1-8,1.1-9.8c0-1.7-0.1-4.6-1.2-8.1c-0.8-2.7-1.9-4.9-2.7-6.4l-1.6-3.1l-5.4-7.6l-5.1-6.1l-10.4-12.6l-3.9-4.5l-2.3-1.1
		l-1.1-0.2l-2.8,0.2l-1.8,0.9l-2.2,1.6l-1.8,2.6l-0.5,1.9l-0.1,1.7l0.5,2.3l1,1.6l2.7,3.2l14.3,17.4l2.1,3.5l1.5,3.8l0.8,5.4
		l-0.5,5.4l-1.8,5.4l-3.3,4.8l-3.3,3.6l-4.9,4l-4.2,2l-7,2l-4.5,0.6l-6,0.1l-6.1-1.1l-6.6-2.1l-3.5-2.1l-3.2-2.5l-1.7-1.9
		L18.1,186.4L18.1,186.4z"/>
	<path id="Top_S" class="st0" d="M96.7,118.6c-0.2-0.6-0.4-1.4-0.8-2.3c-1.4-3.4-3.1-5.6-4.4-7.3c-2.7-3.5-5.3-5.7-6.3-6.5
		c-1.3-1.1-5-4-10.5-6.2c-10.6-4.2-20.3-3.1-24.9-2.2c-5.3,1.1-9.1,2.8-10.4,3.5c-7.1,3.5-11.3,8.1-12.8,9.8
		c-2.1,2.4-5.6,6.6-7.3,13.1c-1.2,4.4-1.1,8-1.1,9.8c0,1.7,0.1,4.6,1.2,8.1c0.8,2.7,1.9,4.9,2.7,6.4l1.6,3.1l5.4,7.6l5.1,6.1
		l10.4,12.6l3.9,4.5l2.3,1.1l1.1,0.2l2.8-0.2l1.8-0.9l2.2-1.6l1.8-2.6l0.5-1.9l0.1-1.7l-0.5-2.3l-1-1.6l-2.7-3.2l-14.3-17.4
		l-2.1-3.5l-1.5-3.8l-0.8-5.4l0.5-5.4l1.8-5.4l3.3-4.8l3.3-3.6l4.9-4l4.2-2l7-2l4.5-0.6l6-0.1l6.1,1.1l6.6,2.1l3.5,2.1l3.2,2.5
		l1.7,1.9L96.7,118.6L96.7,118.6z"/>
</g>
<text transform="matrix(1.07 0 0 1 96.6798 196.8305)" class="st1 st2 st3" style="fill: white;">®</text>
<text transform="matrix(1.01 0 0 1 100.6685 186.2954)" class="st1 st4 st5" style="fill: white;">sas</text>
</svg>
